<svg width="512" height="512" viewBox="0 0 512 512" fill="none" xmlns="http://www.w3.org/2000/svg">
<path fill-rule="evenodd" clip-rule="evenodd" d="M256.234 84.5868C359.934 84.5868 444 169.179 444 273.527C444 323.913 424.398 369.69 392.451 403.561C418.066 435.982 429.84 468.466 418.801 477.87C407.575 487.434 376.844 469.642 348.912 437.877C321.568 453.524 289.94 462.468 256.234 462.468C222.528 462.468 190.902 453.524 163.557 437.877C135.625 469.642 104.894 487.433 93.6678 477.87C82.6295 468.466 94.4029 435.983 120.017 403.562C88.0708 369.69 68.4692 323.913 68.4692 273.527C68.4692 169.179 152.535 84.5868 256.234 84.5868ZM194.458 377.419C198.967 380.039 200.512 385.841 197.909 390.379C195.305 394.916 189.539 396.471 185.03 393.852C180.521 391.231 178.976 385.429 181.579 380.892C184.183 376.354 189.948 374.8 194.458 377.419ZM327.438 145.647C331.948 148.267 333.493 154.069 330.889 158.607C328.286 163.144 322.52 164.698 318.011 162.079C313.502 159.459 311.957 153.657 314.56 149.12C317.163 144.582 322.93 143.027 327.438 145.647ZM194.458 162.078C189.948 164.698 184.182 163.144 181.578 158.606C178.976 154.069 180.52 148.267 185.029 145.647C189.539 143.027 195.305 144.582 197.909 149.119C200.512 153.657 198.967 159.459 194.458 162.078ZM327.438 393.851C322.93 396.47 317.163 394.916 314.56 390.378C311.957 385.841 313.502 380.038 318.011 377.419C322.52 374.8 328.286 376.354 330.889 380.892C333.493 385.429 331.948 391.231 327.438 393.851ZM256.234 394.076C261.441 394.076 265.662 398.323 265.662 403.563C265.662 408.802 261.441 413.05 256.234 413.05C251.027 413.05 246.807 408.802 246.807 403.563C246.807 398.323 251.027 394.076 256.234 394.076ZM149.234 331.913C151.837 336.45 150.292 342.252 145.783 344.872C141.274 347.491 135.508 345.937 132.904 341.399C130.301 336.862 131.846 331.06 136.355 328.44C140.865 325.82 146.63 327.375 149.234 331.913ZM379.564 198.099C382.168 202.636 380.622 208.438 376.113 211.058C371.604 213.678 365.838 212.123 363.235 207.585C360.631 203.048 362.177 197.246 366.685 194.626C371.194 192.007 376.961 193.561 379.564 198.099ZM132.681 269.749C132.681 274.989 128.461 279.236 123.253 279.236C118.046 279.236 113.825 274.989 113.825 269.749C113.825 264.509 118.046 260.262 123.253 260.262C128.461 260.262 132.681 264.509 132.681 269.749ZM398.643 269.749C398.643 274.989 394.422 279.236 389.215 279.236C384.008 279.236 379.787 274.989 379.787 269.749C379.787 264.509 384.008 260.262 389.215 260.262C394.422 260.262 398.643 264.509 398.643 269.749ZM149.234 207.585C146.63 212.123 140.865 213.678 136.355 211.058C131.846 208.437 130.301 202.636 132.904 198.099C135.508 193.561 141.274 192.007 145.783 194.626C150.292 197.246 151.837 203.048 149.234 207.585ZM379.564 341.399C376.961 345.937 371.194 347.491 366.685 344.872C362.177 342.252 360.631 336.449 363.235 331.913C365.838 327.375 371.604 325.82 376.113 328.44C380.622 331.06 382.168 336.862 379.564 341.399ZM256.234 116.39C342.479 116.39 412.394 186.743 412.394 273.527C412.394 360.312 342.479 430.665 256.234 430.665C169.99 430.665 100.075 360.312 100.075 273.527C100.075 186.743 169.99 116.39 256.234 116.39ZM264.679 251.96C273.221 255.349 279.266 263.727 279.266 273.527C279.266 275.326 279.062 277.077 278.677 278.757L326.902 327.284C331.732 332.144 331.732 340.096 326.902 344.956C322.072 349.817 314.169 349.817 309.339 344.956L260.911 296.225C259.4 296.538 257.837 296.703 256.234 296.703C243.514 296.703 233.203 286.327 233.203 273.527C233.203 263.727 239.248 255.349 247.789 251.96V136.509C247.789 131.834 251.59 128.011 256.234 128.011C260.879 128.011 264.679 131.836 264.679 136.509V251.96ZM110.15 106.614C105.582 108.323 101.483 111.003 98.1023 114.405C94.6452 117.884 91.9382 122.118 90.2463 126.84C89.9093 133.231 84.6528 138.309 78.2178 138.309C71.5652 138.309 66.1718 132.882 66.1718 126.188C66.1718 125.302 66.2671 124.439 66.4461 123.608C66.34 123.352 66.3424 122.99 66.483 122.491C69.1952 112.859 74.3232 104.248 81.1655 97.3625C88.081 90.4038 96.7481 85.2073 106.443 82.5018C107.033 82.337 107.471 82.3675 107.797 82.5459C108.452 82.4349 109.125 82.3761 109.811 82.3761C116.464 82.3761 121.858 87.8033 121.858 94.4976C121.858 101.078 116.646 106.433 110.15 106.614ZM41.3952 129.392C39.6535 134.577 34.7797 138.309 29.0397 138.309C21.8382 138.309 16 132.434 16 125.188C16 123.677 16.2548 122.226 16.722 120.874C20.3988 98.255 31.1111 78.0146 46.5246 62.5044C62.6928 46.2347 84.0335 35.1692 107.851 32.022C108.256 31.9683 108.544 32.0148 108.738 32.1407L108.818 32.1399C116.019 32.1399 121.858 38.0146 121.858 45.2611C121.858 52.2612 116.41 57.9805 109.547 58.3615C92.277 61.0317 76.8177 69.2322 65.0143 81.1098C52.5568 93.6451 44.1685 110.278 42.0167 128.826C41.9625 129.294 41.7374 129.45 41.3952 129.392ZM225.613 68.0754C227.503 52.7334 240.504 40.8583 256.262 40.8583C271.878 40.8583 284.785 52.5208 286.856 67.6621C277.381 66.6745 267.767 66.1622 258.032 66.1622C247.063 66.1622 236.249 66.8258 225.613 68.0754ZM402.318 106.614C406.887 108.323 410.986 111.003 414.366 114.405C417.824 117.884 420.53 122.118 422.222 126.84C422.56 133.231 427.816 138.309 434.251 138.309C440.903 138.309 446.297 132.882 446.297 126.188C446.297 125.302 446.202 124.439 446.023 123.608C446.129 123.352 446.127 122.99 445.986 122.491C443.274 112.859 438.146 104.248 431.303 97.3625C424.388 90.4038 415.721 85.2073 406.026 82.5018C405.436 82.337 404.998 82.3675 404.672 82.5459C404.017 82.4349 403.344 82.3761 402.658 82.3761C396.004 82.3761 390.611 87.8033 390.611 94.4976C390.611 101.078 395.822 106.433 402.318 106.614ZM471.074 129.392C472.816 134.577 477.689 138.309 483.429 138.309C490.631 138.309 496.469 132.434 496.469 125.188C496.469 123.677 496.214 122.226 495.747 120.874C492.07 98.255 481.357 78.0146 465.944 62.5044C449.776 46.2347 428.435 35.1692 404.618 32.022C404.212 31.9683 403.925 32.0148 403.73 32.1407L403.651 32.1399C396.45 32.1399 390.611 38.0146 390.611 45.2611C390.611 52.2612 396.059 57.9805 402.921 58.3615C420.192 61.0317 435.651 69.2322 447.454 81.1098C459.912 93.6451 468.301 110.278 470.452 128.826C470.507 129.294 470.732 129.45 471.074 129.392Z" fill="black"/>
</svg>
