<svg width="512" height="512" viewBox="0 0 512 512" fill="none" xmlns="http://www.w3.org/2000/svg">
<path fill-rule="evenodd" clip-rule="evenodd" d="M361.897 235.71C361.161 235.938 360.399 236.03 359.642 235.982C358.887 235.934 358.137 235.745 357.426 235.414C356.716 235.083 356.042 234.609 355.442 233.99C354.842 233.372 354.312 232.606 353.888 231.693C352.101 227.858 349.894 224.483 347.371 221.572C344.846 218.662 342.004 216.216 338.95 214.242C335.895 212.267 332.627 210.763 329.251 209.734C325.874 208.706 322.388 208.153 318.898 208.082C315.407 208.009 311.912 208.42 308.515 209.315C305.118 210.212 301.821 211.594 298.727 213.468C295.635 215.342 292.744 217.71 290.162 220.573C287.579 223.436 285.303 226.797 283.44 230.661C282.965 231.643 282.373 232.427 281.701 233.033C281.028 233.639 280.277 234.065 279.489 234.33C278.701 234.593 277.873 234.696 277.049 234.656C276.225 234.616 275.403 234.431 274.625 234.121C273.847 233.81 273.112 233.373 272.462 232.83C271.811 232.286 271.244 231.633 270.801 230.891C270.36 230.149 270.042 229.317 269.89 228.411C269.738 227.507 269.751 226.53 269.972 225.497C270.165 224.587 270.515 223.615 270.991 222.604C271.467 221.593 272.069 220.542 272.766 219.474C273.464 218.406 274.257 217.32 275.116 216.239C275.974 215.157 276.899 214.079 277.858 213.028C278.817 211.976 279.812 210.949 280.813 209.972C281.812 208.994 282.818 208.063 283.798 207.202C284.778 206.341 285.734 205.549 286.634 204.848C287.533 204.148 288.378 203.537 289.138 203.042C292.502 200.84 296.056 199.097 299.719 197.788C303.383 196.479 307.158 195.606 310.966 195.151C314.774 194.694 318.614 194.655 322.411 195.01C326.207 195.365 329.959 196.117 333.589 197.246C336.537 198.162 339.405 199.327 342.151 200.729C344.896 202.13 347.52 203.77 349.979 205.636C352.438 207.501 354.734 209.595 356.824 211.904C358.915 214.213 360.801 216.737 362.439 219.467C362.942 220.304 363.495 221.182 364.04 222.082C364.586 222.982 365.126 223.904 365.601 224.824C366.077 225.745 366.489 226.667 366.78 227.567C367.071 228.467 367.242 229.346 367.233 230.183C367.229 230.761 367.138 231.318 366.945 231.849C366.751 232.38 366.452 232.883 366.033 233.353C365.613 233.822 365.072 234.258 364.388 234.653C363.706 235.049 362.881 235.403 361.897 235.71ZM354.531 285.383C351.405 288.468 347.977 291.003 344.387 293.052C340.797 295.1 337.046 296.662 333.272 297.802C329.5 298.942 325.705 299.659 322.028 300.019C318.351 300.378 314.792 300.38 311.492 300.089C307.882 299.769 304.58 299.099 301.772 298.16C298.962 297.222 296.645 296.016 295.004 294.628C293.361 293.238 292.395 291.666 292.287 289.995C292.179 288.323 292.929 286.553 294.722 284.767C295.577 283.915 296.482 283.39 297.452 283.104C298.421 282.819 299.456 282.773 300.571 282.878C301.685 282.984 302.88 283.241 304.17 283.562C305.459 283.883 306.843 284.267 308.339 284.628C309.833 284.989 311.439 285.326 313.169 285.551C314.899 285.776 316.756 285.889 318.752 285.803C320.748 285.716 322.885 285.43 325.177 284.856C327.469 284.283 329.918 283.422 332.537 282.186C333.999 281.495 335.312 280.732 336.503 279.932C337.695 279.13 338.767 278.291 339.751 277.451C340.734 276.611 341.628 275.769 342.466 274.96C343.303 274.152 344.082 273.377 344.836 272.672C345.587 271.967 346.314 271.332 347.045 270.801C347.776 270.271 348.512 269.846 349.282 269.561C350.053 269.277 350.86 269.133 351.733 269.165C352.606 269.198 353.546 269.407 354.584 269.828C355.327 270.13 355.955 270.474 356.479 270.853C357.004 271.231 357.426 271.645 357.758 272.087C358.091 272.53 358.334 273.001 358.499 273.493C358.665 273.985 358.755 274.499 358.78 275.028C358.834 276.135 358.765 277.168 358.59 278.136C358.414 279.105 358.13 280.009 357.756 280.859C357.381 281.708 356.915 282.504 356.372 283.255C355.83 284.006 355.21 284.712 354.531 285.383ZM430.596 135.496C430.603 134.197 430.405 132.881 430.002 131.638C429.599 130.395 428.989 129.224 428.174 128.217C427.358 127.209 426.335 126.364 425.104 125.77C423.873 125.177 422.434 124.835 420.786 124.835H376.546H332.306H288.065H243.826H199.586H155.345H111.106H66.8658C65.7468 124.835 64.751 124.941 63.8649 125.139C62.979 125.337 62.2023 125.628 61.5228 125.999C60.8432 126.37 60.26 126.821 59.76 127.34C59.2599 127.859 58.8428 128.447 58.4963 129.089C58.1492 129.731 57.8722 130.428 57.652 131.168C57.4322 131.908 57.2682 132.691 57.1479 133.504C57.0276 134.317 56.9508 135.16 56.9041 136.021C56.8573 136.882 56.8403 137.761 56.8403 138.644V163.18V187.715V212.251V236.786V261.321V285.857V310.392V334.927C56.8403 336.338 57.1036 337.623 57.5702 338.764C58.0367 339.904 58.7072 340.901 59.5216 341.733C60.3361 342.566 61.2944 343.235 62.3376 343.721C63.3803 344.207 64.5083 344.511 65.6612 344.612C66.8139 344.715 67.9919 344.615 69.1353 344.294C70.2788 343.973 71.3882 343.431 72.4035 342.649C73.4187 341.868 74.3401 340.847 75.1082 339.566C75.8761 338.285 76.4905 336.745 76.8922 334.927C78.9329 325.692 81.3662 316.72 84.1881 308.029C87.01 299.338 90.2211 290.927 93.8175 282.812C97.4137 274.699 101.396 266.882 105.76 259.379C110.124 251.875 114.871 244.685 119.996 237.826C125.12 230.966 130.624 224.436 136.503 218.254C142.382 212.072 148.637 206.237 155.264 200.764C161.891 195.292 168.889 190.184 176.256 185.455C183.623 180.727 191.359 176.378 199.46 172.427C203.189 170.609 206.981 168.877 210.835 167.232C214.688 165.587 218.605 164.028 222.58 162.552C226.556 161.077 230.591 159.685 234.685 158.375C238.779 157.065 242.931 155.836 247.139 154.688C251.347 153.54 255.612 152.472 259.931 151.481C264.249 150.491 268.623 149.579 273.049 148.743C277.474 147.907 281.954 147.147 286.483 146.461C291.013 145.776 295.592 145.164 300.222 144.624C304.851 144.085 309.529 143.618 314.254 143.221C318.98 142.824 323.752 142.498 328.57 142.239C333.388 141.981 338.251 141.792 343.157 141.668C348.063 141.545 353.013 141.488 358.006 141.496C362.256 141.502 366.538 141.556 370.848 141.655C375.16 141.754 379.5 141.899 383.867 142.087C388.234 142.276 392.63 142.51 397.052 142.787C401.475 143.064 405.925 143.384 410.4 143.746C411.51 143.835 412.715 143.979 413.967 144.124C415.217 144.268 416.513 144.413 417.805 144.506C419.096 144.599 420.383 144.64 421.616 144.576C422.848 144.512 424.026 144.344 425.1 144.018C425.899 143.775 426.641 143.444 427.305 143.004C427.967 142.563 428.552 142.013 429.038 141.333C429.523 140.652 429.91 139.839 430.176 138.874C430.443 137.908 430.591 136.79 430.596 135.496ZM422.116 380.294L427.295 385.457L432.476 390.618L437.656 395.781L442.835 400.944L448.016 406.106L453.196 411.269L458.375 416.431L463.555 421.593C465.761 423.791 468.112 425.295 470.502 426.21C472.892 427.124 475.323 427.449 477.689 427.29C480.054 427.13 482.354 426.486 484.484 425.462C486.613 424.44 488.572 423.036 490.256 421.358C491.94 419.68 493.348 417.727 494.374 415.606C495.401 413.483 496.047 411.191 496.207 408.833C496.367 406.476 496.04 404.054 495.123 401.672C494.207 399.288 492.697 396.947 490.492 394.748L486.995 391.263L483.498 387.779L480.002 384.294L476.506 380.809L473.01 377.325L469.513 373.84L466.016 370.355L462.52 366.871C462.909 366.353 463.266 365.819 463.592 365.27C463.919 364.721 464.215 364.157 464.482 363.581C464.749 363.005 464.987 362.417 465.2 361.819C465.412 361.221 465.599 360.613 465.76 359.998C465.922 359.383 466.059 358.76 466.174 358.132C466.289 357.505 466.382 356.872 466.454 356.237C466.527 355.603 466.578 354.964 466.613 354.327C466.647 353.689 466.664 353.051 466.664 352.415V322.473V292.532V262.589V232.647V202.704V172.762V142.82V112.877C466.664 110.963 466.466 109.092 466.092 107.283C465.717 105.474 465.165 103.727 464.453 102.062C463.742 100.396 462.872 98.8118 461.864 97.3279C460.855 95.8442 459.707 94.4605 458.438 93.1968C457.171 91.9327 455.782 90.7885 454.293 89.7831C452.805 88.7781 451.215 87.9112 449.543 87.2026C447.872 86.4939 446.119 85.9431 444.304 85.5697C442.489 85.1965 440.612 85 438.691 85C422.244 85 405.797 85 389.351 85C372.904 85 356.458 85 340.011 85C323.565 85 307.118 85 290.672 85C274.225 85 257.778 85 241.332 85C224.884 85 208.438 85 191.991 85C175.546 85 159.098 85 142.652 85C126.205 85 109.758 85 93.3121 85C76.8655 85 60.4187 85 43.9724 85C42.0517 85 40.1744 85.1965 38.3592 85.5697C36.5443 85.9431 34.7912 86.4939 33.12 87.2026C31.4486 87.9112 29.8589 88.7781 28.37 89.7831C26.8811 90.7885 25.4928 91.9327 24.2247 93.1968C22.9563 94.4605 21.8082 95.8442 20.7995 97.3279C19.791 98.8118 18.9209 100.397 18.2101 102.062C17.499 103.727 16.9463 105.474 16.5718 107.283C16.1971 109.092 16 110.963 16 112.877V142.82V172.762V202.705V232.647V262.589V292.532V322.473V352.415C16 354.33 16.1971 356.201 16.5718 358.01C16.9463 359.819 17.499 361.566 18.2101 363.231C18.9212 364.897 19.7906 366.482 20.7995 367.966C21.8082 369.449 22.9563 370.832 24.2247 372.096C25.4928 373.36 26.8811 374.505 28.37 375.51C29.8589 376.515 31.4486 377.382 33.12 378.091C34.7912 378.799 36.544 379.35 38.3592 379.724C40.1741 380.097 42.0517 380.293 43.9724 380.293C50.62 380.293 57.2678 380.293 63.9154 380.293C70.5632 380.293 77.2109 380.293 83.8587 380.293C90.5063 380.293 97.1541 380.293 103.802 380.293C110.449 380.293 117.097 380.293 123.745 380.293C130.392 380.293 137.04 380.293 143.687 380.293C150.335 380.293 156.983 380.293 163.631 380.293C170.279 380.293 176.927 380.293 183.574 380.293C190.222 380.293 196.869 380.293 203.517 380.293L202.481 383.262L201.445 386.23L200.409 389.199L199.373 392.167L198.337 395.135L197.301 398.104L196.265 401.072L195.229 404.041H190.049H184.869H179.688H174.509H169.329H164.148H158.969H153.789V406.622V409.203V411.784V414.365V416.947V419.528V422.109V424.691H175.934H198.078H220.223H242.368H264.512H286.657H308.802H330.947V422.109V419.528V416.947V414.365V411.784V409.203V406.622V404.041C329.22 404.041 327.494 404.041 325.767 404.041C324.04 404.041 322.313 404.041 320.586 404.041C318.86 404.041 317.133 404.041 315.407 404.041C313.68 404.041 311.953 404.041 310.226 404.041C308.5 404.041 306.773 404.041 305.046 404.041C303.32 404.041 301.592 404.041 299.867 404.041C298.14 404.041 296.413 404.041 294.686 404.041C292.96 404.041 291.233 404.041 289.506 404.041L288.47 401.072L287.434 398.104L286.397 395.135L285.362 392.167L284.326 389.198L283.29 386.23L282.254 383.262L281.218 380.293L298.831 380.294H316.442H334.054H351.667H369.279H386.891H404.504H422.116ZM317.873 162.354C329.671 162.354 340.91 164.737 351.133 169.046C361.355 173.355 370.562 179.59 378.293 187.295C386.025 195.001 392.281 204.176 396.604 214.364C400.928 224.552 403.32 235.753 403.32 247.511C403.32 252.533 402.883 257.455 402.046 262.239C401.208 267.023 399.97 271.67 398.367 276.144C396.765 280.618 394.796 284.919 392.499 289.011C390.202 293.104 387.575 296.989 384.655 300.63L386.251 302.219L387.845 303.809L389.44 305.398L391.035 306.987L392.33 308.278L393.625 309.569L394.92 310.859L396.214 312.15C396.796 312.053 397.379 311.974 397.962 311.917C398.545 311.86 399.128 311.822 399.71 311.807C400.292 311.792 400.873 311.797 401.451 311.826C402.03 311.855 402.605 311.908 403.177 311.985C403.749 312.062 404.316 312.163 404.88 312.29C405.441 312.418 405.999 312.572 406.549 312.752C407.101 312.934 407.644 313.142 408.181 313.381C408.716 313.618 409.245 313.885 409.764 314.182C410.525 314.618 411.557 315.391 412.792 316.42C414.028 317.448 415.467 318.737 417.044 320.204C418.62 321.671 420.334 323.319 422.119 325.069C423.904 326.82 425.761 328.673 427.622 330.552C429.482 332.43 431.349 334.333 433.154 336.183C434.957 338.033 436.7 339.831 438.316 341.498C439.931 343.166 441.419 344.702 442.712 346.032C444.005 347.361 445.104 348.483 445.943 349.32V320.281V291.242V262.202V233.163V204.125V175.086V146.047V117.008C445.943 116.301 445.869 115.609 445.728 114.94C445.589 114.271 445.382 113.624 445.115 113.008C444.85 112.392 444.526 111.805 444.149 111.255C443.773 110.705 443.345 110.193 442.874 109.724C442.402 109.256 441.886 108.831 441.334 108.459C440.782 108.086 440.193 107.764 439.576 107.501C438.959 107.239 438.312 107.034 437.644 106.895C436.976 106.757 436.287 106.684 435.583 106.684H387.279H338.975H290.672H242.368H194.064H145.76H97.4565H49.1526C48.4428 106.684 47.7486 106.758 47.0776 106.897C46.4061 107.037 45.7575 107.244 45.139 107.509C44.5205 107.773 43.9318 108.097 43.3801 108.472C42.8282 108.847 42.3137 109.273 41.8439 109.743C41.3735 110.213 40.9479 110.727 40.5738 111.277C40.1999 111.827 39.877 112.414 39.6135 113.029C39.3497 113.644 39.1447 114.289 39.0054 114.954C38.8661 115.62 38.7929 116.307 38.7929 117.008V145.918V174.828V203.738V232.648V261.557V290.467V319.377V348.287C38.7929 348.993 38.8669 349.686 39.0073 350.355C39.1474 351.023 39.3548 351.67 39.6205 352.287C39.8859 352.903 40.2107 353.49 40.5868 354.04C40.9629 354.589 41.3908 355.102 41.8626 355.571C42.3341 356.039 42.8495 356.463 43.4016 356.837C43.9536 357.21 44.5424 357.531 45.1596 357.794C45.7769 358.056 46.4233 358.261 47.0913 358.4C47.7594 358.539 48.4488 358.611 49.1526 358.611H93.0534H136.954H180.855H224.756H268.656H312.557H356.458H400.359C399.31 357.566 398.145 356.477 396.919 355.343C395.693 354.209 394.404 353.032 393.109 351.813C391.814 350.595 390.512 349.334 389.255 348.032C387.999 346.73 386.79 345.387 385.682 344.004C384.572 342.621 383.565 341.199 382.712 339.737C381.858 338.276 381.16 336.776 380.671 335.238C380.181 333.701 379.901 332.125 379.884 330.514C379.866 328.903 380.112 327.255 380.675 325.572L379.38 324.281L378.085 322.991L376.79 321.7L375.496 320.409L374.128 319.048L372.762 317.686L371.395 316.323L370.029 314.961C366.421 317.736 362.584 320.23 358.553 322.411C354.521 324.59 350.293 326.457 345.903 327.977C341.513 329.495 336.961 330.668 332.278 331.461C327.595 332.253 322.783 332.667 317.873 332.667C306.075 332.667 294.836 330.284 284.613 325.975C274.391 321.666 265.185 315.431 257.453 307.726C249.722 300.02 243.465 290.845 239.141 280.657C234.817 270.469 232.427 259.268 232.427 247.511C232.427 235.753 234.817 224.552 239.141 214.364C243.465 204.176 249.722 195.001 257.453 187.295C265.185 179.59 274.391 173.355 284.613 169.046C294.836 164.737 306.075 162.354 317.873 162.354ZM317.873 182.975C326.814 182.975 335.331 184.781 343.079 188.046C350.825 191.312 357.803 196.037 363.662 201.877C369.521 207.716 374.263 214.669 377.539 222.39C380.816 230.111 382.628 238.6 382.628 247.511C382.628 256.421 380.816 264.91 377.539 272.63C374.263 280.352 369.521 287.305 363.662 293.144C357.803 298.983 350.826 303.708 343.079 306.975C335.332 310.24 326.814 312.046 317.873 312.046C308.932 312.046 300.414 310.24 292.667 306.975C284.92 303.708 277.943 298.983 272.085 293.144C266.225 287.305 261.483 280.352 258.207 272.63C254.93 264.91 253.118 256.421 253.118 247.511C253.118 238.6 254.93 230.111 258.207 222.39C261.483 214.669 266.225 207.716 272.085 201.877C277.943 196.037 284.92 191.312 292.667 188.046C300.414 184.781 308.932 182.975 317.873 182.975Z" fill="black"/>
</svg>
