<svg width="512" height="512" viewBox="0 0 512 512" fill="none" xmlns="http://www.w3.org/2000/svg">
<path fill-rule="evenodd" clip-rule="evenodd" d="M321.31 312.664C321.727 310.263 323.706 308.557 326.248 308.557C326.964 308.557 326.964 308.557 327.682 308.557C330.549 310.004 334.136 310.727 337.721 310.727C345.608 310.727 352.779 307.112 357.798 301.327C358.515 299.881 359.949 299.156 362.1 299.156C363.768 299.156 365.195 299.891 366.096 301.076C368.824 301.517 370.771 303.784 370.771 306.704C370.771 308.335 369.962 309.151 369.152 310.78H369.962C362.687 319.747 351.37 325.454 338.437 325.454C332.779 325.454 327.121 324.638 322.271 322.192C320.654 321.377 319.037 319.747 319.037 317.302C319.037 315.345 319.912 313.681 321.31 312.664ZM376.428 269.207C376.428 270.022 376.428 270.837 376.428 270.837C376.428 274.098 374.002 276.543 370.769 276.543C370.552 276.543 370.341 276.53 370.137 276.505C369.309 277.112 368.272 277.463 367.118 277.463C364.967 277.463 363.534 276.018 362.816 274.571C358.515 264.448 349.192 257.939 338.437 257.939C327.682 257.939 318.36 264.448 314.058 273.848C313.34 275.294 311.908 276.741 309.756 276.741C308.553 276.741 307.476 276.358 306.631 275.702C306.46 275.719 306.285 275.727 306.106 275.727C302.872 275.727 300.447 273.281 300.447 270.022C300.447 269.207 300.447 268.391 300.447 268.391C306.913 253.717 321.463 243.937 337.629 243.937C354.603 243.937 369.962 254.533 375.619 270.022L376.428 269.207ZM232.903 164.683C227.693 164.813 223.51 169.077 223.51 174.318C223.51 179.557 227.693 183.82 232.903 183.951V183.985H443.05C447.654 183.985 452.257 187.67 452.257 193.192V374.427V375.349L423.715 346.804C419.11 342.201 413.586 341.281 408.061 342.201L398.853 332.993C408.982 320.104 415.428 303.53 415.428 285.113C415.428 241.84 380.439 206.851 337.164 206.851C293.889 206.851 258.9 241.84 258.9 285.113C258.9 328.389 293.889 363.379 337.164 363.379C355.578 363.379 373.073 356.933 386.884 345.884L385.043 344.962L394.25 354.17C392.409 359.694 394.25 366.14 398.853 370.744L411.745 383.634H150.597C145.994 383.634 141.39 379.951 141.39 374.427V266.984H140.913L140.914 266.862C140.981 261.542 136.599 257.227 131.277 257.227C125.955 257.227 121.639 261.542 121.639 266.862L121.64 266.984H121.132V378.11C121.132 391.921 132.181 402.969 145.992 402.969H256.865L249.498 435.004H212.67V453.419H370.119V435.004H333.288L325.923 402.969H431.08L467.911 439.8C474.356 446.245 485.404 446.245 491.85 439.8C498.296 433.355 498.296 422.305 491.85 415.86L466.99 390.999C469.752 387.318 470.672 382.713 470.672 378.11V189.509C470.672 175.697 459.624 164.648 445.813 164.648H232.903V164.683ZM337.855 227.569C369.2 227.569 395.171 253.539 395.171 284.885C395.171 316.23 369.2 342.201 337.855 342.201C306.511 342.201 280.54 316.23 280.54 284.885C280.54 253.539 306.511 227.569 337.855 227.569ZM199.59 276.644L206.131 283.184C211.627 288.681 220.626 288.681 226.123 283.184L239.184 270.123C244.681 264.627 244.681 255.626 239.184 250.131L162.707 173.654L239.184 97.1763C244.681 91.6799 244.681 82.6806 239.184 77.1843L232.692 70.6916L232.664 70.6626L232.605 70.6051L226.123 64.1226C220.626 58.6266 211.626 58.6266 206.131 64.1226L199.627 70.6267L129.654 140.599L53.1763 64.1223C47.6799 58.6259 38.6802 58.6259 33.1838 64.1223L20.1223 77.1839C14.6259 82.6803 14.6259 91.6797 20.1223 97.176L26.6282 103.682L96.5992 173.654L20.1223 250.131C14.6259 255.627 14.6259 264.627 20.1223 270.123L33.1838 283.184C38.6802 288.682 47.6796 288.682 53.176 283.184L129.654 206.707L199.59 276.644Z" fill="black"/>
</svg>
