<svg width="512" height="512" viewBox="0 0 512 512" fill="none" xmlns="http://www.w3.org/2000/svg">
<path fill-rule="evenodd" clip-rule="evenodd" d="M101.653 142.158C108.956 132.435 117.056 123.361 125.86 115.084C134.751 106.724 144.348 99.1878 154.531 92.6033C164.916 85.8873 175.887 80.1783 187.286 75.562C208.243 67.0745 230.408 62.3851 252.914 62.0227C274.288 61.6784 295.558 65.2479 315.723 72.6186C335.681 79.9131 354.264 90.8254 370.579 104.815C387.342 119.188 401.436 136.57 412.337 156.09L449.829 129.631L445.351 260.204L330.59 218.92L368.601 189.163C360.831 174.586 350.646 161.561 338.423 150.758C326.548 140.263 312.947 132.042 298.291 126.514C283.497 120.935 267.851 118.184 252.112 118.356C235.548 118.536 219.226 121.946 203.802 128.192C195.869 131.405 188.221 135.347 180.96 139.964C173.839 144.492 167.104 149.66 160.834 155.385C154.629 161.052 148.888 167.257 143.671 173.91C130.532 190.666 120.504 226.831 93.117 213.392C61.7101 197.981 89.6847 158.097 101.653 142.158ZM62 382.199L66.4773 251.626L181.239 292.909L143.228 322.666C150.997 337.244 161.184 350.268 173.407 361.072C185.281 371.567 198.882 379.787 213.537 385.315C228.332 390.895 243.978 393.645 259.717 393.475C276.282 393.294 292.603 389.883 308.027 383.638C315.959 380.425 323.608 376.483 330.869 371.865C337.989 367.338 344.724 362.17 350.994 356.446C357.199 350.778 362.941 344.573 368.157 337.92C381.296 321.166 391.327 284.997 418.712 298.438C450.118 313.848 422.145 353.733 410.177 369.671C402.874 379.395 394.774 388.468 385.97 396.747C377.079 405.106 367.482 412.642 357.299 419.226C346.913 425.943 335.943 431.652 324.544 436.268C303.585 444.756 281.421 449.445 258.914 449.807C237.54 450.152 216.27 446.583 196.106 439.211C176.148 431.917 157.566 421.004 141.25 407.014C124.487 392.641 110.393 375.26 99.4912 355.739L62 382.199Z" fill="black"/>
</svg>
