<svg width="512" height="512" viewBox="0 0 512 512" fill="none" xmlns="http://www.w3.org/2000/svg">
<path fill-rule="evenodd" clip-rule="evenodd" d="M210.805 258.878L217.745 265.818C223.577 271.65 233.127 271.65 238.959 265.818L252.818 251.958C258.65 246.127 258.65 236.577 252.818 230.745L171.669 149.596L252.818 68.4473C258.65 62.6152 258.65 53.066 252.818 47.234L245.928 40.3447L245.899 40.3139L245.837 40.2529L238.958 33.3745C233.127 27.5427 223.577 27.5427 217.745 33.3745L210.844 40.2759L136.596 114.523L55.4473 33.3741C49.6152 27.542 40.0657 27.542 34.2335 33.3741L20.3741 47.2336C14.542 53.0658 14.542 62.6149 20.3741 68.447L27.2773 75.3503L101.523 149.596L20.3741 230.745C14.542 236.577 14.542 246.127 20.3741 251.959L34.2335 265.819C40.0657 271.651 49.6148 271.651 55.447 265.819L136.596 184.67L210.805 258.878ZM298.637 150.613C298.688 150.607 298.738 150.599 298.791 150.595C308.704 149.783 318.689 149.851 328.642 150.849C347.572 152.744 366.026 157.963 383.127 166.306C400.052 174.564 415.404 185.76 428.448 199.347C441.85 213.305 452.596 229.553 460.308 247.294L496.066 228.599L479.222 339.347L381.834 292.431L418.377 270.98C412.945 257.77 405.226 245.634 395.485 235.182C386.022 225.026 374.808 216.631 362.396 210.422C349.866 204.155 336.306 200.209 322.374 198.744C315.315 198 308.231 197.901 301.193 198.415C300.45 198.469 299.979 198.23 299.723 197.766C299.275 197.763 298.824 197.749 298.371 197.721C285.367 196.911 275.482 185.712 276.292 172.707C277.047 160.603 286.802 151.202 298.637 150.613ZM128.258 403.977L145.1 293.23L242.49 340.146L205.947 361.596C211.378 374.806 219.098 386.943 228.839 397.395C238.302 407.551 249.514 415.946 261.927 422.155C274.457 428.422 288.017 432.368 301.95 433.833C316.611 435.376 331.379 434.144 345.632 430.405C352.963 428.481 360.112 425.907 366.988 422.718C373.731 419.592 380.195 415.881 386.303 411.647C392.348 407.456 398.036 402.76 403.306 397.628C416.575 384.705 429.012 354.928 451.897 369.179C478.142 385.522 449.477 416.625 437.323 428.973C429.906 436.507 421.85 443.405 413.249 449.552C404.563 455.761 395.334 461.196 385.682 465.762C375.838 470.417 365.575 474.156 355.041 476.92C335.674 482.002 315.616 483.725 295.682 481.728C276.751 479.832 258.298 474.613 241.197 466.271C224.272 458.014 208.92 446.817 195.875 433.229C182.474 419.272 171.727 403.024 164.014 385.283L128.258 403.977Z" fill="black"/>
</svg>
