<svg width="512" height="512" viewBox="0 0 512 512" fill="none" xmlns="http://www.w3.org/2000/svg">
<path fill-rule="evenodd" clip-rule="evenodd" d="M118.887 59H317.849C332.637 59 344.736 72.583 344.736 89.1843V134.657H392.963C408.139 134.657 420.557 148.24 420.557 164.842V422.816C420.557 439.418 408.139 453 392.963 453H188.764C173.588 453 161.17 439.418 161.17 422.816V377.343H118.887C104.099 377.343 92 363.761 92 347.159V89.1843C92 72.583 104.099 59 118.887 59ZM131.048 89.1074H305.688C312.898 89.1074 318.797 95.9546 318.797 104.324V134.657H244.972C228.405 134.657 220.631 134.783 215.667 140.492L168.23 195.046C162.246 201.928 161.17 212.116 161.17 232.205V347.236H131.048C123.838 347.236 117.939 340.389 117.939 332.019V104.324C117.939 95.9546 123.838 89.1074 131.048 89.1074ZM235.661 164.765H380.482C387.882 164.765 393.935 171.792 393.935 180.382V407.276C393.935 415.865 387.882 422.893 380.482 422.893H201.245C193.845 422.893 187.791 415.865 187.791 407.276V219.853H208.066C223.243 219.853 235.661 206.27 235.661 189.669V164.765ZM243.731 274.69H340.657C348.022 274.69 354.047 281.684 354.047 290.234C354.047 298.783 348.022 305.777 340.657 305.777H243.731C236.366 305.777 230.339 298.783 230.339 290.234C230.339 281.684 236.366 274.69 243.731 274.69ZM283.266 208.073H340.657C348.022 208.073 354.047 215.068 354.047 223.617C354.047 232.167 348.022 239.162 340.657 239.162H283.266C275.901 239.162 269.875 232.167 269.875 223.617C269.875 215.068 275.901 208.073 283.266 208.073ZM243.731 347.227H301.121C308.487 347.227 314.512 354.222 314.512 362.771V362.772C314.512 371.32 308.487 378.315 301.121 378.315H243.731C236.366 378.315 230.339 371.32 230.339 362.772V362.771C230.339 354.222 236.366 347.227 243.731 347.227Z" fill="black"/>
</svg>
