<svg width="512" height="512" viewBox="0 0 512 512" fill="none" xmlns="http://www.w3.org/2000/svg">
<path fill-rule="evenodd" clip-rule="evenodd" d="M458.005 127.236C458.037 121.185 454.164 115.855 447.567 115.855C410.196 115.855 70.6767 114.162 65.3181 117.096C56.4632 121.946 60.336 165.421 60.336 182.985C60.336 200.462 59.2951 339.787 61.1126 344.245C64.5877 352.77 72.6302 350.721 81.6707 340.149C202.529 198.817 337.799 141.392 440.312 136.447C448.435 136.055 457.951 138.268 458.005 127.236ZM496.682 220.23C496.803 226.155 491.834 231.004 485.907 231.004C475.131 231.004 475.195 220.783 474.333 213.145V138.5C474.333 118.468 478.15 101.871 467.559 97.3488C461.839 94.907 92.7766 96.4757 52.1564 96.4757C48.4822 96.4757 45.0769 98.3567 43.0288 101.379C38.4752 108.1 41.1338 298.94 41.1338 323.548C41.1338 341.624 38.8768 364.847 48.7417 364.892L212.794 365.63C215.821 366.145 218.145 368.795 218.145 371.963V428.752C218.145 431.52 216.37 433.893 213.902 434.791L139.149 435.98V413.935H180.537L194.763 388.582L55.8744 389.304C39.2633 389.39 25.7217 385.615 19.2342 370.367C13.7704 357.524 16.8827 165.385 16.8827 135.055C16.8827 112.751 11.0182 80.0548 40.6724 73.9344C48.6877 72.2802 423.265 73.3261 466.617 73.3261C478.574 73.3261 493.783 79.6365 494.027 91.5413L496.682 220.23Z" fill="black"/>
<path fill-rule="evenodd" clip-rule="evenodd" d="M346.937 205.125C410.234 205.125 461.546 256.437 461.546 319.734C461.546 383.032 410.234 434.344 346.937 434.344C283.64 434.344 232.327 383.032 232.327 319.734C232.327 256.437 283.64 205.125 346.937 205.125ZM346.937 225.333C399.073 225.333 441.338 267.598 441.338 319.734C441.338 371.871 399.073 414.136 346.937 414.136C294.8 414.136 252.535 371.871 252.535 319.734C252.535 267.598 294.8 225.333 346.937 225.333Z" fill="black"/>
<path fill-rule="evenodd" clip-rule="evenodd" d="M332.324 254.121H361.55C365.017 254.121 367.853 256.957 367.853 260.424V298.818H406.247C409.714 298.818 412.551 301.655 412.551 305.122V334.348C412.551 337.814 409.714 340.651 406.247 340.651H367.853V379.045C367.853 382.512 365.017 385.349 361.55 385.349H332.324C328.857 385.349 326.021 382.512 326.021 379.045V340.651H287.626C284.159 340.651 281.323 337.814 281.323 334.348V305.122C281.323 301.655 284.159 298.818 287.626 298.818H326.021V260.424C326.021 256.957 328.857 254.121 332.324 254.121Z" fill="black"/>
</svg>
