<svg width="512" height="512" viewBox="0 0 512 512" fill="none" xmlns="http://www.w3.org/2000/svg">
<path fill-rule="evenodd" clip-rule="evenodd" d="M496.517 285.206C496.598 291.146 491.656 296.01 485.714 296.01H485.713C474.909 296.01 474.973 285.761 474.11 278.103V137.673C474.11 117.587 477.937 100.947 467.317 96.413C461.583 93.9647 91.548 95.5375 50.8208 95.5375C47.137 95.5375 41.7001 96.7939 41.6692 100.454L39.7693 323.207C39.6151 341.33 37.5064 364.625 47.3973 364.66L250.749 365.401C253.784 365.917 242.178 369.127 243.968 371.751L282.836 428.689C284.401 430.98 281.056 433.844 278.582 434.743L155.047 435.937V413.832H196.544L210.808 388.413L54.5487 389.137C37.8942 389.213 24.3162 385.438 17.812 370.149C16.4039 366.84 15.0537 351.656 15.0927 330.392L15.4543 134.218C15.4956 111.856 9.57442 79.0733 39.3067 72.9369C47.3431 71.2783 422.907 72.327 466.373 72.327C478.361 72.327 493.693 78.6531 493.856 90.5902L496.517 285.206Z" fill="black"/>
<path fill-rule="evenodd" clip-rule="evenodd" d="M354.342 214.507C415.617 216.768 463.457 268.273 461.197 329.549C458.936 390.823 407.43 438.664 346.156 436.403C284.88 434.142 237.04 382.637 239.3 321.362C239.523 315.34 240.221 309.449 241.357 303.723C243.972 290.55 264.102 289.094 260.45 308.107C259.577 312.65 259.039 317.317 258.863 322.084C257.001 372.554 296.406 414.979 346.877 416.841C397.348 418.703 439.772 379.297 441.634 328.827C443.496 278.356 404.091 235.931 353.621 234.069C349.977 233.935 346.375 234.016 342.828 234.3C329.152 235.397 329.426 215.418 342.073 214.747C345.41 214.57 350.938 214.381 354.342 214.507Z" fill="black"/>
<path fill-rule="evenodd" clip-rule="evenodd" d="M402.602 351.088C404.873 353.455 404.632 357.305 402.207 359.513L381.757 378.126C379.331 380.335 375.602 380.098 373.332 377.731L364.662 368.694C362.391 366.328 362.632 362.478 365.057 360.27L385.507 341.656C387.933 339.448 391.662 339.685 393.932 342.051L402.602 351.088ZM379.12 325.29C381.307 327.733 381.15 331.507 378.724 333.715L358.275 352.329C355.849 354.536 352.036 354.376 349.85 351.933L277.968 271.635C275.934 269.362 255.819 229.921 262.067 225.087C268.701 219.954 304.728 242.187 307.239 244.992L379.12 325.29Z" fill="black"/>
<path fill-rule="evenodd" clip-rule="evenodd" d="M102.969 172.629C102.969 180.563 106.936 184.53 114.87 184.53H396.046C403.98 184.53 407.946 180.563 407.946 172.629C407.946 164.696 403.98 160.729 396.046 160.729H114.87C106.936 160.729 102.969 164.696 102.969 172.629Z" fill="black" stroke="black" stroke-width="0.5669" stroke-miterlimit="2"/>
<path fill-rule="evenodd" clip-rule="evenodd" d="M113.05 297.725H209.467C215.012 297.725 219.549 292.591 219.549 286.316C219.549 280.041 215.012 274.907 209.467 274.907H113.05C107.506 274.907 102.969 280.041 102.969 286.316C102.969 292.591 107.505 297.725 113.05 297.725Z" fill="black" stroke="black" stroke-width="0.5669" stroke-miterlimit="2"/>
<path fill-rule="evenodd" clip-rule="evenodd" d="M114.582 241.127H225.645C232.032 241.127 237.257 235.993 237.257 229.719C237.257 223.443 232.032 218.309 225.645 218.309H114.582C108.195 218.309 102.969 223.443 102.969 229.718C102.969 235.993 108.195 241.127 114.582 241.127Z" fill="black" stroke="black" stroke-width="0.5669" stroke-miterlimit="2"/>
</svg>
