<svg width="512" height="512" viewBox="0 0 512 512" fill="none" xmlns="http://www.w3.org/2000/svg">
<g id="09delete">
<g id="Layer1000">
<path id="path8" fill-rule="evenodd" clip-rule="evenodd" d="M457.532 127.178C457.564 121.134 453.695 115.809 447.106 115.809C409.775 115.809 70.6182 114.118 65.2653 117.049C56.4199 121.894 60.2886 165.322 60.2886 182.868C60.2886 200.326 59.2487 339.502 61.0643 343.955C64.5358 352.471 72.5698 350.425 81.6005 339.864C202.329 198.683 337.456 141.319 439.858 136.379C447.973 135.987 457.478 138.199 457.532 127.178ZM496.168 220.073C496.29 225.991 491.326 230.836 485.405 230.836H485.404C474.64 230.836 474.704 220.625 473.844 212.995V138.43C473.844 118.419 477.656 101.84 467.076 97.3228C461.363 94.8836 92.6945 96.4506 52.1177 96.4506C48.4475 96.4506 45.0458 98.3297 42.9999 101.349C38.4512 108.062 41.1069 298.698 41.1069 323.28C41.1069 341.337 38.8523 364.535 48.7067 364.579L212.583 365.318C215.608 365.832 217.929 368.479 217.929 371.643V428.372C217.929 431.137 216.156 433.508 213.691 434.404L139.018 435.593V413.57H180.361L194.572 388.245L55.8317 388.966C39.2385 389.052 25.7113 385.28 19.2307 370.049C13.7727 357.22 16.8817 165.286 16.8817 134.989C16.8817 112.709 11.0236 80.0472 40.646 73.9334C48.6527 72.281 422.83 73.3258 466.136 73.3258C478.08 73.3258 493.272 79.6294 493.517 91.5215L496.168 220.073Z" fill="black"/>
<path id="path10" fill-rule="evenodd" clip-rule="evenodd" d="M346.937 210.547C410.234 210.547 461.546 261.86 461.546 325.157C461.546 388.454 410.234 439.766 346.937 439.766C283.64 439.766 232.327 388.454 232.327 325.157C232.327 261.86 283.64 210.547 346.937 210.547ZM346.937 230.756C399.073 230.756 441.338 273.02 441.338 325.157C441.338 377.293 399.073 419.558 346.937 419.558C294.8 419.558 252.535 377.293 252.535 325.157C252.535 273.02 294.8 230.756 346.937 230.756Z" fill="black"/>
<path id="path12" fill-rule="evenodd" clip-rule="evenodd" d="M406.247 304.24C409.714 304.24 412.551 307.077 412.551 310.544V339.769C412.551 343.236 409.714 346.073 406.247 346.073C349.871 346.073 344.002 346.073 287.626 346.073C284.159 346.073 281.323 343.236 281.323 339.769V310.544C281.323 307.077 284.159 304.24 287.626 304.24C344.002 304.24 349.871 304.24 406.247 304.24Z" fill="black"/>
</g>
</g>
</svg>
