<svg width="512" height="512" viewBox="0 0 512 512" fill="none" xmlns="http://www.w3.org/2000/svg">
<path fill-rule="evenodd" clip-rule="evenodd" d="M256 16C388.548 16 496 123.452 496 256C496 388.548 388.548 496 256 496C123.452 496 16 388.548 16 256C16 123.452 123.452 16 256 16ZM256 69.9645C358.746 69.9645 442.036 153.255 442.036 256C442.036 358.746 358.746 442.036 256 442.036C153.255 442.036 69.9645 358.746 69.9645 256C69.9645 153.255 153.255 69.9645 256 69.9645ZM256 216.047H256.001C271.148 216.047 283.541 228.44 283.541 243.588V375.624C283.541 390.77 271.148 403.164 256.001 403.164H256C240.852 403.164 228.459 390.77 228.459 375.624V243.588C228.459 228.44 240.852 216.047 256 216.047ZM256 103.184C278.312 103.184 296.401 121.273 296.401 143.585C296.401 165.897 278.312 183.985 256 183.985C233.688 183.985 215.599 165.897 215.599 143.585C215.599 121.273 233.688 103.184 256 103.184Z" fill="black"/>
</svg>
